<?xml version="1.0" encoding="UTF-8"?>
<svg xmlns="http://www.w3.org/2000/svg" viewBox="0 0 1024 1024">
  <!-- Background circle with red ring -->
  <circle cx="512" cy="512" r="480" fill="#FFFFFF" stroke="#E11D1D" stroke-width="48"/>
  
  <!-- Green swoosh (layer 1) -->
  <path fill="#0B5C35" d="
    M 800 520
    C 690 620, 590 660, 470 660
    C 370 660, 300 640, 240 610
    C 310 700, 410 755, 535 755
    C 665 755, 770 700, 840 610
    C 860 585, 862 560, 850 540
    C 838 520, 820 510, 800 520 Z" />
  
  <!-- Green swoosh (layer 2, inner) -->
  <path fill="#0B5C35" d="
    M 760 480
    C 660 560, 570 590, 465 590
    C 380 590, 320 570, 270 545
    C 325 615, 400 650, 510 650
    C 615 650, 710 615, 780 545
    C 800 525, 800 500, 790 490
    C 780 480, 770 475, 760 480 Z"/>
  
  <!-- Green swoosh (thin inner highlight) -->
  <path fill="#0B5C35" d="
    M 720 450
    C 635 515, 560 535, 470 535
    C 400 535, 350 520, 310 500
    C 355 545, 410 565, 500 565
    C 585 565, 660 545, 715 500
    C 730 488, 730 468, 720 460
    C 712 454, 705 448, 720 450 Z"/>
  
  <!-- Red dot -->
  <circle cx="300" cy="600" r="55" fill="#E11D1D"/>
</svg>
